<svg viewBox="0 0 22 17" fill="none" xmlns="http://www.w3.org/2000/svg">
   <path
      d="M19.8896 11.6362C18.8191 12.9586 17.469 14.0274 15.9362 14.7657C14.4034 15.5041 12.7261 15.8936 11.0248 15.9064C9.32327 15.8949 7.64553 15.5058 6.11257 14.7674C4.5796 14.0289 3.22962 12.9595 2.15997 11.6362C1.42517 10.7191 1.02478 9.57896 1.02478 8.40378C1.02478 7.2286 1.42517 6.0885 2.15997 5.17137C3.23043 3.84898 4.58058 2.7802 6.11336 2.04185C7.64615 1.30349 9.32348 0.913917 11.0248 0.901123C12.7263 0.912709 14.404 1.30175 15.937 2.04019C17.47 2.77863 18.8199 3.84807 19.8896 5.17137C20.6244 6.0885 21.0248 7.2286 21.0248 8.40378C21.0248 9.57896 20.6244 10.7191 19.8896 11.6362Z"
      stroke="currentColor" stroke-linecap="round" stroke-linejoin="round" />
   <path
      d="M11.0246 11.7333C10.3661 11.7333 9.72232 11.5381 9.17475 11.1722C8.62718 10.8063 8.20041 10.2863 7.94839 9.67786C7.69637 9.06944 7.63043 8.39994 7.75891 7.75404C7.88739 7.10814 8.20451 6.51484 8.67018 6.04918C9.13585 5.58351 9.72914 5.26638 10.375 5.1379C11.0209 5.00943 11.6904 5.07537 12.2989 5.32738C12.9073 5.5794 13.4273 6.00618 13.7932 6.55375C14.1591 7.10132 14.3544 7.74508 14.3544 8.40364C14.3544 9.28673 14.0035 10.1337 13.3791 10.7581C12.7547 11.3825 11.9077 11.7333 11.0246 11.7333Z"
      stroke="currentColor" stroke-linecap="round" stroke-linejoin="round" />
</svg>