<svg viewBox="0 0 22 23" fill="none" xmlns="http://www.w3.org/2000/svg">
   <path
      d="M13.7491 18.5714C12.8734 18.7984 11.9653 18.9065 11.0248 18.9065C7.48964 18.9065 4.32208 17.2525 2.15992 14.6362C0.646402 12.8092 0.646402 9.98759 2.15992 8.17138C2.33289 7.95516 2.52748 7.74975 2.72208 7.54435M16.8626 17.2525C17.9977 16.5606 19.0247 15.6741 19.8896 14.6362C21.4031 12.82 21.4031 9.98759 19.8896 8.17138C17.7274 5.55516 14.5599 3.9011 11.0247 3.9011C8.8842 3.9011 6.89501 4.4957 5.17609 5.55516M16.8626 17.2525L13.3816 13.7606M16.8626 17.2525L21.0248 21.4038M5.17609 5.55516L1.02478 1.40381M5.17609 5.55516L8.6681 9.04705M13.3816 13.7606C13.9762 13.1552 14.3546 12.3227 14.3546 11.4038C14.3546 9.55516 12.8735 8.07408 11.0249 8.07408C10.1059 8.07408 9.26269 8.44165 8.6681 9.04705M13.3816 13.7606L8.6681 9.04705"
      stroke="currentColor" stroke-linecap="round" stroke-linejoin="round" />
</svg>